<svg width="25" height="24" viewBox="0 0 25 24" fill="none" xmlns="http://www.w3.org/2000/svg">
<path opacity="0.4" d="M12.1426 2C9.52258 2 7.39258 4.13 7.39258 6.75C7.39258 9.32 9.40258 11.4 12.0226 11.49C12.1026 11.48 12.1826 11.48 12.2426 11.49C12.2626 11.49 12.2726 11.49 12.2926 11.49C12.3026 11.49 12.3026 11.49 12.3126 11.49C14.8726 11.4 16.8826 9.32 16.8926 6.75C16.8926 4.13 14.7626 2 12.1426 2Z" fill="#666666"/>
<path d="M17.2225 14.15C14.4325 12.29 9.88254 12.29 7.07254 14.15C5.80254 15 5.10254 16.15 5.10254 17.38C5.10254 18.61 5.80254 19.75 7.06254 20.59C8.46254 21.53 10.3025 22 12.1425 22C13.9825 22 15.8225 21.53 17.2225 20.59C18.4825 19.74 19.1825 18.6 19.1825 17.36C19.1725 16.13 18.4825 14.99 17.2225 14.15Z" fill="#666666"/>
</svg>
