<svg width="25" height="24" viewBox="0 0 25 24" fill="none" xmlns="http://www.w3.org/2000/svg">
<path d="M12.4355 15C14.0924 15 15.4355 13.6569 15.4355 12C15.4355 10.3431 14.0924 9 12.4355 9C10.7787 9 9.43555 10.3431 9.43555 12C9.43555 13.6569 10.7787 15 12.4355 15Z" stroke="#1A1A1A" stroke-width="1.5" stroke-miterlimit="10" stroke-linecap="round" stroke-linejoin="round"/>
<path d="M2.43555 12.88V11.12C2.43555 10.08 3.28555 9.22 4.33555 9.22C6.14555 9.22 6.88555 7.94 5.97555 6.37C5.45555 5.47 5.76555 4.3 6.67555 3.78L8.40555 2.79C9.19555 2.32 10.2155 2.6 10.6855 3.39L10.7955 3.58C11.6955 5.15 13.1755 5.15 14.0855 3.58L14.1955 3.39C14.6655 2.6 15.6855 2.32 16.4755 2.79L18.2055 3.78C19.1155 4.3 19.4255 5.47 18.9055 6.37C17.9955 7.94 18.7355 9.22 20.5455 9.22C21.5855 9.22 22.4455 10.07 22.4455 11.12V12.88C22.4455 13.92 21.5955 14.78 20.5455 14.78C18.7355 14.78 17.9955 16.06 18.9055 17.63C19.4255 18.54 19.1155 19.7 18.2055 20.22L16.4755 21.21C15.6855 21.68 14.6655 21.4 14.1955 20.61L14.0855 20.42C13.1855 18.85 11.7055 18.85 10.7955 20.42L10.6855 20.61C10.2155 21.4 9.19555 21.68 8.40555 21.21L6.67555 20.22C5.76555 19.7 5.45555 18.53 5.97555 17.63C6.88555 16.06 6.14555 14.78 4.33555 14.78C3.28555 14.78 2.43555 13.92 2.43555 12.88Z" stroke="#1A1A1A" stroke-width="1.5" stroke-miterlimit="10" stroke-linecap="round" stroke-linejoin="round"/>
</svg>
