<svg width="61" height="24" viewBox="0 0 61 24" fill="none" xmlns="http://www.w3.org/2000/svg">
<path d="M56.3355 13.5H40.5355C39.0355 13.5 38.4355 14.14 38.4355 15.73V19.77C38.4355 21.36 39.0355 22 40.5355 22H56.3355C57.8355 22 58.4355 21.36 58.4355 19.77V15.73C58.4355 14.14 57.8355 13.5 56.3355 13.5Z" stroke="#2ABAFF" stroke-width="1.5" stroke-linecap="round" stroke-linejoin="round"/>
<path d="M56.3355 2H40.5355C39.0355 2 38.4355 2.64 38.4355 4.23V8.27C38.4355 9.86 39.0355 10.5 40.5355 10.5H56.3355C57.8355 10.5 58.4355 9.86 58.4355 8.27V4.23C58.4355 2.64 57.8355 2 56.3355 2Z" stroke="#2ABAFF" stroke-width="1.5" stroke-linecap="round" stroke-linejoin="round"/>
<path d="M20.3355 2H4.53555C3.03555 2 2.43555 3.50588 2.43555 7.24706V16.7529C2.43555 20.4941 3.03555 22 4.53555 22H20.3355C21.8355 22 22.4355 20.4941 22.4355 16.7529V7.24706C22.4355 3.50588 21.8355 2 20.3355 2Z" stroke="#1A1A1A" stroke-width="1.5" stroke-linecap="round" stroke-linejoin="round"/>
</svg>