<svg width="25" height="24" viewBox="0 0 25 24" fill="none" xmlns="http://www.w3.org/2000/svg">
<path d="M10.9707 19C10.9707 20.1 11.8707 21 12.9707 21C14.0707 21 14.9707 20.1 14.9707 19C14.9707 17.9 14.0707 17 12.9707 17C11.8707 17 10.9707 17.9 10.9707 19Z" stroke="#1A1A1A" stroke-width="1.5"/>
<path d="M10.9707 5C10.9707 6.1 11.8707 7 12.9707 7C14.0707 7 14.9707 6.1 14.9707 5C14.9707 3.9 14.0707 3 12.9707 3C11.8707 3 10.9707 3.9 10.9707 5Z" stroke="#1A1A1A" stroke-width="1.5"/>
<path d="M10.9707 12C10.9707 13.1 11.8707 14 12.9707 14C14.0707 14 14.9707 13.1 14.9707 12C14.9707 10.9 14.0707 10 12.9707 10C11.8707 10 10.9707 10.9 10.9707 12Z" stroke="#1A1A1A" stroke-width="1.5"/>
</svg>