<svg width="25" height="24" viewBox="0 0 25 24" fill="none" xmlns="http://www.w3.org/2000/svg">
<path d="M20.7177 6.82L14.9577 2.79C13.3877 1.69 10.9777 1.75 9.46772 2.92L4.45772 6.83C3.45772 7.61 2.66772 9.21 2.66772 10.47V17.37C2.66772 19.92 4.73772 22 7.28772 22H18.0677C20.6177 22 22.6877 19.93 22.6877 17.38V10.6C22.6877 9.25 21.8177 7.59 20.7177 6.82ZM13.4277 18C13.4277 18.41 13.0877 18.75 12.6777 18.75C12.2677 18.75 11.9277 18.41 11.9277 18V15C11.9277 14.59 12.2677 14.25 12.6777 14.25C13.0877 14.25 13.4277 14.59 13.4277 15V18Z" fill="#121314"/>
</svg>
