<svg width="25" height="24" viewBox="0 0 25 24" fill="none" xmlns="http://www.w3.org/2000/svg">
<path opacity="0.4" d="M20.3037 6.82L14.5437 2.79C12.9737 1.69 10.5637 1.75 9.05366 2.92L4.04366 6.83C3.04366 7.61 2.25366 9.21 2.25366 10.47V17.37C2.25366 19.92 4.32366 22 6.87366 22H17.6537C20.2037 22 22.2737 19.93 22.2737 17.38V10.6C22.2737 9.25 21.4037 7.59 20.3037 6.82Z" fill="#666666"/>
<path d="M12.2637 18.75C11.8537 18.75 11.5137 18.41 11.5137 18V15C11.5137 14.59 11.8537 14.25 12.2637 14.25C12.6737 14.25 13.0137 14.59 13.0137 15V18C13.0137 18.41 12.6737 18.75 12.2637 18.75Z" fill="#666666"/>
</svg>
